#!OML:ASF F:\VICON\USERDATA\INSTALL\rory3\rory3.ASF
:FULLY-SPECIFIED
:DEGREES
261
root -3.05535 18.1543 -8.97517 -169.427 -30.1727 178.063
lowerback -10.364 -0.194559 -1.74026
upperback -3.01442 -0.253174 -1.19242
thorax 2.67181 -0.222129 -0.291543
lowerneck -18.6098 0.631486 1.56898
upperneck 25.4941 0.131864 -1.20154
head 11.3825 -0.18156 -0.735037
rclavicle 1.62817e-014 4.57205e-015
rhumerus -35.2266 10.4273 -95.3143
rradius 31.4296
rwrist 4.38908
rhand -20.4182 9.90979
rfingers 7.12502
rthumb 5.93608 -19.9871
lclavicle 1.62817e-014 4.57205e-015
lhumerus -39.9599 -11.9533 88.3924
lradius 31.3869
lwrist 7.8414
lhand -9.93485 27.3593
lfingers 7.12502
lthumb 16.0464 56.7148
rfemur 0.170084 -4.16845 14.3934
rtibia 31.4788
rfoot -3.6244 12.7034
rtoes -17.2457
lfemur -34.1197 10.1142 -27.1125
ltibia 30.2277
lfoot -7.06541 2.0933
ltoes -4.34527
262
root -3.14998 18.1722 -9.05624 -169.547 -30.1096 178.042
lowerback -10.3281 -0.15068 -1.71447
upperback -2.92506 -0.188693 -1.25212
thorax 2.74421 -0.188171 -0.360014
lowerneck -18.6328 0.660759 1.75338
upperneck 25.4136 0.164263 -1.34422
head 11.3574 -0.164027 -0.812468
rclavicle -4.28008e-014 -1.15295e-014
rhumerus -35.2466 9.92493 -95.0026
rradius 31.1332
rwrist 5.00235
rhand -19.979 9.97897
rfingers 7.12502
rthumb 6.36006 -19.9055
lclavicle -4.28008e-014 -1.15295e-014
lhumerus -39.7819 -12.301 88.4423
lradius 31.6626
lwrist 8.07786
lhand -10.3866 27.4986
lfingers 7.12502
lthumb 15.6114 56.8886
rfemur -0.343276 -4.05714 14.0672
rtibia 33.0494
rfoot -2.38544 12.7427
rtoes -17.6328
lfemur -33.6049 10.4787 -27.3488
ltibia 30.3428
lfoot -7.33812 1.95574
ltoes -5.93259
263
root -3.24373 18.1866 -9.13356 -169.607 -29.9665 177.984
lowerback -10.2756 -0.111632 -1.74661
upperback -2.87485 -0.129183 -1.30037
thorax 2.76695 -0.157666 -0.384418
lowerneck -18.6618 0.743916 1.99001
upperneck 25.4096 0.253734 -1.49924
head 11.3641 -0.119647 -0.895812
rclavicle 8.66577e-015 1.59028e-015
rhumerus -35.2828 9.55136 -94.6612
rradius 30.8715
rwrist 5.86557
rhand -19.4288 10.3055
rfingers 7.12502
rthumb 6.89123 -19.5624
lclavicle 8.66577e-015 1.59028e-015
lhumerus -39.6834 -12.6297 88.5669
lradius 32.0741
lwrist 8.34259
lhand -10.7874 27.7574
lfingers 7.12502
lthumb 15.2253 57.1771
rfemur -0.977309 -3.9294 13.674
rtibia 34.6995
rfoot -1.08687 12.6411
rtoes -16.6524
lfemur -33.1813 10.764 -27.5565
ltibia 30.5004
lfoot -7.77401 1.85478
ltoes -5.96249
264
root -3.33508 18.2047 -9.21077 -169.518 -29.7276 177.946
lowerback -10.3738 -0.0513991 -1.81604
upperback -2.87511 -0.041406 -1.29815
thorax 2.82005 -0.11543 -0.332609
lowerneck -18.7114 0.783904 1.97839
upperneck 25.4134 0.323906 -1.52724
head 11.3768 -0.0919376 -0.893527
rclavicle 5.12833e-014 2.76311e-014
rhumerus -35.4303 9.60533 -94.438
rradius 30.773
rwrist 6.15549
rhand -19.1869 10.3582
rfingers 7.12502
rthumb 7.12474 -19.5019
lclavicle 5.12833e-014 2.76311e-014
lhumerus -39.6192 -12.8322 88.6978
lradius 32.5322
lwrist 8.68193
lhand -11.1659 27.9794
lfingers 7.12502
lthumb 14.8607 57.4264
rfemur -1.87029 -3.69238 13.3408
rtibia 36.3785
rfoot -0.178821 12.6007
rtoes -16.1655
lfemur -32.9804 10.773 -27.6209
ltibia 30.5169
lfoot -8.07096 1.97606
ltoes -4.87742
265
root -3.42215 18.2132 -9.28739 -169.411 -29.4917 177.834
lowerback -10.4336 0.038724 -1.90298
upperback -2.8936 0.0866177 -1.37294
thorax 2.83255 -0.0541267 -0.345331
lowerneck -18.732 0.779744 1.95101
upperneck 25.4338 0.311593 -1.47692
head 11.3882 -0.0937978 -0.872517
rclavicle 8.17688e-014 1.47101e-014
rhumerus -35.619 9.70229 -94.3746
rradius 30.7436
rwrist 5.93022
rhand -19.1477 10.1396
rfingers 7.12502
rthumb 7.16259 -19.7192
lclavicle 8.17688e-014 1.47101e-014
lhumerus -39.5836 -13.1012 88.73
lradius 32.9998
lwrist 9.14385
lhand -11.3157 27.8906
lfingers 7.12502
lthumb 14.7164 57.3483
rfemur -2.79844 -3.45706 12.9626
rtibia 38.0825
rfoot 0.481831 12.7621
rtoes -15.7878
lfemur -32.5146 11.2419 -28.0134
ltibia 30.4949
lfoot -8.53578 2.02742
ltoes -8.27849
266
root -3.5082 18.2244 -9.36537 -169.398 -29.301 177.648
lowerback -10.4038 0.0765937 -2.09622
upperback -2.85904 0.159352 -1.43819
thorax 2.85064 -0.0188538 -0.295169
lowerneck -18.6644 0.79235 1.97331
upperneck 25.3651 0.331337 -1.49523
head 11.3493 -0.0840662 -0.879054
rclavicle -7.94517e-015 1.96797e-014
rhumerus -35.6583 9.70962 -94.2808
rradius 30.5397
rwrist 5.89918
rhand -19.2655 9.96998
rfingers 7.12502
rthumb 7.04888 -19.8926
lclavicle -7.94517e-015 1.96797e-014
lhumerus -39.5374 -13.348 88.7588
lradius 33.5288
lwrist 9.61397
lhand -11.4714 27.9277
lfingers 7.12502
lthumb 14.5663 57.3963
rfemur -3.56153 -3.23754 12.5352
rtibia 39.7476
rfoot 1.05174 12.8414
rtoes -15.3822
lfemur -32.0553 11.4306 -28.2475
ltibia 30.4139
lfoot -8.8667 2.03638
ltoes -7.66897
267
root -3.59512 18.2339 -9.44267 -169.439 -29.1461 177.516
lowerback -10.378 0.0834663 -2.22719
upperback -2.80665 0.185992 -1.46164
thorax 2.88996 -0.00550752 -0.242542
lowerneck -18.5347 0.807935 1.92987
upperneck 25.2116 0.374386 -1.491
head 11.2664 -0.0658375 -0.861555
rclavicle -5.50634e-014 -7.35503e-015
rhumerus -35.6 9.82473 -94.1622
rradius 30.2514
rwrist 5.90864
rhand -19.3848 10.1219
rfingers 7.12502
rthumb 6.93371 -19.7446
lclavicle -5.50634e-014 -7.35503e-015
lhumerus -39.554 -13.6489 88.8687
lradius 34.2106
lwrist 10.188
lhand -11.7741 28.0585
lfingers 7.12502
lthumb 14.2747 57.5479
rfemur -4.27967 -3.0375 12.1797
rtibia 41.3755
rfoot 1.03746 12.5394
rtoes -16.493
lfemur -31.5633 11.4359 -28.3723
ltibia 30.3817
lfoot -9.22745 2.12542
ltoes -6.35378
268
root -3.67769 18.2441 -9.51873 -169.481 -28.9885 177.366
lowerback -10.2969 0.0932848 -2.42746
upperback -2.7701 0.220728 -1.502
thorax 2.88176 0.0114536 -0.16742
lowerneck -18.4168 0.8424 1.96678
upperneck 25.1107 0.416429 -1.49137
head 11.2061 -0.0421378 -0.860327
rclavicle 7.21278e-014 6.55989e-015
rhumerus -35.6194 10.1325 -94.1598
rradius 30.0998
rwrist 5.74592
rhand -19.4068 10.2429
rfingers 7.12502
rthumb 6.91243 -19.6242
lclavicle 7.21278e-014 6.55989e-015
lhumerus -39.5678 -13.8418 88.8781
lradius 34.8482
lwrist 10.5244
lhand -11.9633 28.0503
lfingers 7.12502
lthumb 14.0923 57.5525
rfemur -5.01499 -2.83201 11.8498
rtibia 42.9464
rfoot 0.422161 11.771
rtoes -18.2312
lfemur -31.0321 11.6628 -28.5963
ltibia 30.3186
lfoot -9.54281 2.06144
ltoes -6.28938
269
root -3.75195 18.2527 -9.58822 -169.391 -29.043 177.331
lowerback -10.2858 0.0520699 -2.55193
upperback -2.80451 0.174404 -1.50336
thorax 2.83983 -0.0128086 -0.104653
lowerneck -18.4716 0.863081 1.94132
upperneck 25.2182 0.424188 -1.41209
head 11.2575 -0.0333596 -0.827344
rclavicle -5.70574e-014 -1.31198e-014
rhumerus -35.6323 10.4407 -94.1703
rradius 30.0029
rwrist 5.64188
rhand -19.4902 10.11
rfingers 7.12502
rthumb 6.83199 -19.7598
lclavicle -5.70574e-014 -1.31198e-014
lhumerus -39.5437 -14.0479 88.874
lradius 35.4424
lwrist 10.8466
lhand -12.0843 27.7443
lfingers 7.12502
lthumb 13.9757 57.2545
rfemur -5.93897 -2.8646 11.7142
rtibia 44.4513
rfoot -0.484609 11.0234
rtoes -18.9761
lfemur -30.7842 11.8438 -28.7485
ltibia 30.3123
lfoot -9.81084 1.88102
ltoes -6.89636
270
root -3.82078 18.2608 -9.65337 -169.239 -29.2493 177.246
lowerback -10.3198 -0.027197 -2.66885
upperback -2.79702 0.0823647 -1.55353
thorax 2.86743 -0.0601822 -0.10269
lowerneck -18.619 0.868679 1.98088
upperneck 25.3437 0.398126 -1.35746
head 11.3336 -0.0355167 -0.819435
rclavicle -2.95351e-014 -6.36111e-015
rhumerus -35.4355 10.494 -94.1358
rradius 29.807
rwrist 5.73321
rhand -19.566 10.0865
rfingers 7.12502
rthumb 6.7588 -19.7856
lclavicle -2.95351e-014 -6.36111e-015
lhumerus -39.3866 -14.3053 88.7891
lradius 36.0024
lwrist 11.1855
lhand -12.1901 27.5098
lfingers 7.12502
lthumb 13.8738 57.0271
rfemur -6.89928 -3.06093 11.5896
rtibia 45.8785
rfoot -1.47527 10.2779
rtoes -19.0062
lfemur -30.5931 11.8569 -28.9189
ltibia 30.3356
lfoot -10.0827 1.72456
ltoes -7.34309
271
root -3.89291 18.2676 -9.71935 -169.182 -29.3447 177.137
lowerback -10.3678 -0.0841736 -2.81217
upperback -2.69655 0.0321622 -1.58934
thorax 2.99882 -0.0857522 -0.0661683
lowerneck -18.7047 0.854754 1.95318
upperneck 25.2876 0.372368 -1.28108
head 11.3285 -0.0366386 -0.789583
rclavicle 3.66789e-014 3.06128e-014
rhumerus -35.1192 10.5662 -94.0147
rradius 29.6066
rwrist 5.90651
rhand -19.5195 10.2447
rfingers 7.12502
rthumb 6.80368 -19.6259
lclavicle 3.66789e-014 3.06128e-014
lhumerus -39.1266 -14.4849 88.7068
lradius 36.5152
lwrist 11.5228
lhand -12.2425 27.5121
lfingers 7.12502
lthumb 13.8233 57.0328
rfemur -7.75626 -3.15701 11.4053
rtibia 47.1709
rfoot -2.38128 9.46955
rtoes -18.4856
lfemur -30.2638 11.8043 -29.0689
ltibia 30.3537
lfoot -10.4271 1.75801
ltoes -7.83538
272
root -3.96816 18.2722 -9.78592 -169.176 -29.3924 177.017
lowerback -10.3496 -0.14265 -2.97181
upperback -2.61832 -0.02253 -1.60279
thorax 3.07087 -0.113202 0.00235917
lowerneck -18.7055 0.852262 1.93982
upperneck 25.201 0.375118 -1.26421
head 11.2958 -0.0318955 -0.779502
rclavicle -1.09052e-014 2.62396e-014
rhumerus -34.904 10.7202 -93.9018
rradius 29.4007
rwrist 6.06884
rhand -19.5965 10.3565
rfingers 7.12502
rthumb 6.72937 -19.5166
lclavicle -1.09052e-014 2.62396e-014
lhumerus -38.9747 -14.5933 88.6731
lradius 37.0481
lwrist 11.8526
lhand -12.4187 27.3597
lfingers 7.12502
lthumb 13.6535 56.8919
rfemur -8.54022 -3.30001 11.1735
rtibia 48.3305
rfoot -3.28391 8.70794
rtoes -18.2036
lfemur -29.8486 11.8023 -29.2394
ltibia 30.3576
lfoot -10.7905 1.7964
ltoes -8.42866
273
root -4.04226 18.2769 -9.8498 -169.203 -29.4893 176.966
lowerback -10.2714 -0.164021 -2.98584
upperback -2.58865 -0.0485405 -1.6479
thorax 3.05915 -0.125478 -0.0396321
lowerneck -18.7244 0.846299 1.93018
upperneck 25.2765 0.342832 -1.19064
head 11.3275 -0.0398585 -0.756765
rclavicle 3.18211e-014 -1.39149e-014
rhumerus -34.7359 10.6348 -93.777
rradius 29.2172
rwrist 6.21154
rhand -19.7013 10.4004
rfingers 7.12502
rthumb 6.62814 -19.4759
lclavicle 3.18211e-014 -1.39149e-014
lhumerus -38.9064 -14.9469 88.7006
lradius 37.5937
lwrist 12.3942
lhand -12.6 27.0464
lfingers 7.12502
lthumb 13.4787 56.5902
rfemur -9.3122 -3.54087 11.0039
rtibia 49.3484
rfoot -4.13974 8.00776
rtoes -18.091
lfemur -29.4271 11.7149 -29.3102
ltibia 30.3614
lfoot -11.1232 1.84394
ltoes -8.33481
274
root -4.1119 18.2804 -9.91019 -169.282 -29.6054 176.981
lowerback -10.1379 -0.21094 -2.9605
upperback -2.5623 -0.114556 -1.66349
thorax 3.01436 -0.156353 -0.0777015
lowerneck -18.7427 0.86606 1.90853
upperneck 25.325 0.354535 -1.12228
head 11.3496 -0.0290461 -0.72688
rclavicle -2.91002e-014 1.94809e-014
rhumerus -34.5459 10.5397 -93.6603
rradius 29.0416
rwrist 6.49091
rhand -19.7877 10.4758
rfingers 7.12502
rthumb 6.54479 -19.4031
lclavicle -2.91002e-014 1.94809e-014
lhumerus -38.7821 -15.2358 88.687
lradius 38.0935
lwrist 12.8952
lhand -12.7144 26.8335
lfingers 7.12502
lthumb 13.3685 56.3846
rfemur -10.0801 -3.75922 10.9156
rtibia 50.2483
rfoot -4.86758 7.58522
rtoes -17.7016
lfemur -29.0164 11.6355 -29.3186
ltibia 30.3548
lfoot -11.3961 1.89281
ltoes -8.45666
